<?xml version="1.0" encoding="utf-8"?>
<!-- Generator: Adobe Illustrator 17.0.0, SVG Export Plug-In . SVG Version: 6.00 Build 0)  -->
<!DOCTYPE svg PUBLIC "-//W3C//DTD SVG 1.1//EN" "http://www.w3.org/Graphics/SVG/1.1/DTD/svg11.dtd">
<svg version="1.1" id="Capa_1" xmlns="http://www.w3.org/2000/svg" xmlns:xlink="http://www.w3.org/1999/xlink" x="0px" y="0px"
	 width="48px" height="48px" viewBox="0 0 48 48" enable-background="new 0 0 48 48" xml:space="preserve">
<g>
	<g>
		<path fill="#FFFFFF" d="M10.286,30.857c0-3.429,0-17.143,0-17.143s0.009-0.771,0.41-1.714c-3.564,0-7.267,0-7.267,0S0,12,0,15.429
			v12c0,3.429,3.429,3.429,3.429,3.429V48h10.286V34.286C13.714,34.286,10.286,34.286,10.286,30.857z"/>
		<path fill="#FFFFFF" d="M10.286,10.286c0.891,0,1.716-0.247,2.446-0.645c0.101-0.062,0.214-0.117,0.322-0.177
			c1.425-0.914,2.374-2.503,2.374-4.322C15.429,2.302,13.126,0,10.286,0S5.143,2.302,5.143,5.143S7.445,10.286,10.286,10.286z"/>
		<path fill="#FFFFFF" d="M44.571,12h-7.265c0.399,0.943,0.408,1.714,0.408,1.714s0,13.714,0,17.143s-3.429,3.429-3.429,3.429V48
			h10.286V30.857c0,0,3.429,0,3.429-3.429s0-12,0-12S48,12,44.571,12z"/>
		<path fill="#FFFFFF" d="M34.937,9.461c0.111,0.06,0.23,0.117,0.333,0.18c0.73,0.398,1.553,0.645,2.445,0.645
			c2.841,0,5.143-2.302,5.143-5.143S40.555,0,37.714,0c-2.841,0-5.143,2.302-5.143,5.143C32.571,6.958,33.518,8.546,34.937,9.461z"
			/>
		<circle fill="#FFFFFF" cx="24" cy="5.143" r="5.143"/>
		<path fill="#FFFFFF" d="M34.286,15.429c0,0,0-3.429-3.429-3.429C30,12,17.143,12,17.143,12s-3.429,0-3.429,3.429v12
			c0,3.429,3.429,3.429,3.429,3.429V48h13.714V30.857c0,0,3.429,0,3.429-3.429S34.286,15.429,34.286,15.429z"/>
	</g>
</g>
</svg>
