<?xml version="1.0" encoding="utf-8"?>
<!-- Generator: Adobe Illustrator 17.0.0, SVG Export Plug-In . SVG Version: 6.00 Build 0)  -->
<!DOCTYPE svg PUBLIC "-//W3C//DTD SVG 1.1//EN" "http://www.w3.org/Graphics/SVG/1.1/DTD/svg11.dtd">
<svg version="1.1" id="Capa_1" xmlns="http://www.w3.org/2000/svg" xmlns:xlink="http://www.w3.org/1999/xlink" x="0px" y="0px"
	 width="48px" height="48px" viewBox="0 0 48 48" enable-background="new 0 0 48 48" xml:space="preserve">
<g>
	<path fill="#9B9C9F" d="M24.001,0C10.741,0,0,10.741,0,24.001C0,37.254,10.741,48,24.001,48s23.998-10.746,23.998-23.999
		C47.998,10.741,37.261,0,24.001,0z M24.001,44.085c-11.094,0-20.086-8.991-20.086-20.086c0-11.097,8.992-20.091,20.086-20.091
		S44.088,12.903,44.088,24C44.088,35.094,35.094,44.085,24.001,44.085z"/>
	<polygon fill="#9B9C9F" points="26.552,29.192 27.527,9.103 20.518,9.103 21.496,29.192 	"/>
	<path fill="#9B9C9F" d="M24.022,31.404c-2.348,0-3.99,1.643-3.99,4.039c0,2.305,1.596,4.034,3.897,4.034h0.093
		c2.394,0,3.946-1.729,3.946-4.034C27.924,33.047,26.372,31.404,24.022,31.404z"/>
</g>
</svg>
